<svg xmlns:dc="http://purl.org/dc/elements/1.1/" xmlns:cc="http://creativecommons.org/ns#" xmlns:rdf="http://www.w3.org/1999/02/22-rdf-syntax-ns#" xmlns:svg="http://www.w3.org/2000/svg" xmlns="http://www.w3.org/2000/svg" xmlns:sodipodi="http://sodipodi.sourceforge.net/DTD/sodipodi-0.dtd" xmlns:inkscape="http://www.inkscape.org/namespaces/inkscape" viewBox="0 0 100 125" version="1.1" x="0px" y="0px"><g transform="translate(0,-952.36216)"><path style="opacity:1;fill:#000000;fill-opacity:1;stroke:none;stroke-width:2;stroke-linecap:butt;stroke-linejoin:miter;stroke-miterlimit:4;stroke-dasharray:none;stroke-dashoffset:0;stroke-opacity:1" d="m 50.000073,957.3622 a 35.585729,35.585729 0 0 0 -35.585884,35.58585 35.585729,35.585729 0 0 0 23.467876,33.42515 l 12.118008,20.989 12.127813,-21.0063 A 35.585729,35.585729 0 0 0 85.585799,992.94805 35.585729,35.585729 0 0 0 50.000073,957.3622 Z m 0,9.18976 a 26.396155,26.396155 0 0 1 26.396042,26.39609 26.396155,26.396155 0 0 1 -26.396042,26.39605 26.396155,26.396155 0 0 1 -26.396201,-26.39605 26.396155,26.396155 0 0 1 26.396201,-26.39609 z"/><path d="m 42.447203,978.20747 0,11.98964 -2.471014,2.47075 0,8.04014 -0.670015,0.67 -0.670014,-0.67 0,-16.86557 2.484414,-2.48375 -0.947401,-0.9474 -2.877042,2.87637 0,17.97515 2.010043,2.01 2.010044,-2.01 0,-8.04017 1.130985,-1.13058 0,12.91605 -1.590615,0 0,2.68 20.100437,0 0,-2.68 -1.591955,0 0,-26.80063 -16.917867,0 z m 1.84254,2.0808 13.232787,0 0,7.39629 -13.232787,0 0,-7.39629 z" style="opacity:1;fill:#000000;fill-opacity:1;stroke:none;stroke-width:3;stroke-linecap:butt;stroke-linejoin:miter;stroke-miterlimit:4;stroke-dasharray:none;stroke-dashoffset:0;stroke-opacity:1"/></g><text x="0" y="115" fill="#000000" font-size="5px" font-weight="bold" font-family="'Helvetica Neue', Helvetica, Arial-Unicode, Arial, Sans-serif">Created by anbileru adaleru</text><text x="0" y="120" fill="#000000" font-size="5px" font-weight="bold" font-family="'Helvetica Neue', Helvetica, Arial-Unicode, Arial, Sans-serif">from the Noun Project</text></svg>