<svg xmlns:dc="http://purl.org/dc/elements/1.1/" xmlns:cc="http://creativecommons.org/ns#" xmlns:rdf="http://www.w3.org/1999/02/22-rdf-syntax-ns#" xmlns:svg="http://www.w3.org/2000/svg" xmlns="http://www.w3.org/2000/svg" xmlns:sodipodi="http://sodipodi.sourceforge.net/DTD/sodipodi-0.dtd" xmlns:inkscape="http://www.inkscape.org/namespaces/inkscape" viewBox="0 0 100 125" version="1.1" x="0px" y="0px"><g transform="translate(0,-952.36216)"><path d="m 49.999747,957.36215 c -17.676817,4e-5 -32.006228,14.32999 -32.006375,32.00674 0,17.67671 32.980858,57.99321 32.980858,57.99321 0,0 31.032333,-40.3165 31.032333,-57.99321 0,-17.67675 -14.330146,-32.0067 -32.006816,-32.00674 z m 0,6.49684 a 25.509998,25.509998 0 0 1 25.509871,25.5099 25.509998,25.509998 0 0 1 -25.509871,25.50991 25.509998,25.509998 0 0 1 -25.509872,-25.50991 25.509998,25.509998 0 0 1 25.509872,-25.5099 z" style="opacity:1;fill:#000000;fill-opacity:1;stroke:none;stroke-width:2;stroke-linecap:butt;stroke-linejoin:miter;stroke-miterlimit:4;stroke-dasharray:none;stroke-dashoffset:0;stroke-opacity:1"/><path d="m 43.791304,975.6676 0,11.14449 -2.296832,2.29658 0,7.47343 -0.622786,0.62278 -0.622785,-0.62278 0,-15.67676 2.309288,-2.30866 -0.880619,-0.88062 -2.67424,2.67362 0,16.70808 1.868356,1.86836 1.868356,-1.86836 0,-7.47342 1.051262,-1.05089 0,12.00555 -1.478493,0 0,2.4911 18.683559,0 0,-2.4911 -1.479737,0 0,-24.9114 -15.725329,0 z m 1.712659,1.93412 12.30001,0 0,6.87492 -12.30001,0 0,-6.87492 z" style="opacity:1;fill:#000000;fill-opacity:1;stroke:none;stroke-width:3;stroke-linecap:butt;stroke-linejoin:miter;stroke-miterlimit:4;stroke-dasharray:none;stroke-dashoffset:0;stroke-opacity:1"/></g><text x="0" y="115" fill="#000000" font-size="5px" font-weight="bold" font-family="'Helvetica Neue', Helvetica, Arial-Unicode, Arial, Sans-serif">Created by anbileru adaleru</text><text x="0" y="120" fill="#000000" font-size="5px" font-weight="bold" font-family="'Helvetica Neue', Helvetica, Arial-Unicode, Arial, Sans-serif">from the Noun Project</text></svg>